<svg width="120" height="120" viewBox="0 0 120 120" xmlns="http://www.w3.org/2000/svg">
  <!-- Network mesh pattern -->
  <g stroke="#0052CC" stroke-width="1.5" fill="none" opacity="0.6">
    <!-- Horizontal lines -->
    <line x1="20" y1="30" x2="100" y2="30"/>
    <line x1="20" y1="60" x2="100" y2="60"/>
    <line x1="20" y1="90" x2="100" y2="90"/>
    
    <!-- Vertical lines -->
    <line x1="30" y1="20" x2="30" y2="100"/>
    <line x1="60" y1="20" x2="60" y2="100"/>
    <line x1="90" y1="20" x2="90" y2="100"/>
    
    <!-- Diagonal connections -->
    <line x1="30" y1="30" x2="60" y2="60"/>
    <line x1="60" y1="30" x2="90" y2="60"/>
    <line x1="30" y1="60" x2="60" y2="90"/>
    <line x1="60" y1="60" x2="90" y2="90"/>
  </g>
  
  <!-- Key intersection nodes -->
  <circle cx="30" cy="30" r="4" fill="#36B37E"/>
  <circle cx="60" cy="30" r="4" fill="#36B37E"/>
  <circle cx="90" cy="30" r="4" fill="#36B37E"/>
  <circle cx="30" cy="60" r="4" fill="#36B37E"/>
  <circle cx="90" cy="60" r="4" fill="#36B37E"/>
  <circle cx="30" cy="90" r="4" fill="#36B37E"/>
  <circle cx="60" cy="90" r="4" fill="#36B37E"/>
  <circle cx="90" cy="90" r="4" fill="#36B37E"/>
  
  <!-- Central gateway node (larger) -->
  <circle cx="60" cy="60" r="8" fill="#0052CC"/>
</svg>