<svg width="120" height="120" viewBox="0 0 120 120" xmlns="http://www.w3.org/2000/svg">
  <!-- Gateway portal design -->
  <rect x="40" y="20" width="40" height="80" rx="20" fill="none" stroke="#1d4ed8" stroke-width="4"/>
  
  <!-- Inner portal -->
  <rect x="50" y="35" width="20" height="50" rx="10" fill="#3b82f6" opacity="0.3"/>
  
  <!-- Data streams entering the gateway -->
  <rect x="15" y="45" width="20" height="3" rx="1.5" fill="#64748b" opacity="0.6"/>
  <rect x="15" y="55" width="20" height="3" rx="1.5" fill="#64748b" opacity="0.6"/>
  <rect x="15" y="65" width="20" height="3" rx="1.5" fill="#64748b" opacity="0.6"/>
  
  <rect x="85" y="45" width="20" height="3" rx="1.5" fill="#64748b" opacity="0.6"/>
  <rect x="85" y="55" width="20" height="3" rx="1.5" fill="#64748b" opacity="0.6"/>
  <rect x="85" y="65" width="20" height="3" rx="1.5" fill="#64748b" opacity="0.6"/>
  
  <!-- Unified output stream -->
  <rect x="55" y="105" width="10" height="10" rx="5" fill="#1d4ed8"/>
  
  <!-- Connection indicators -->
  <circle cx="40" cy="60" r="3" fill="#2563eb" opacity="0.7"/>
  <circle cx="80" cy="60" r="3" fill="#2563eb" opacity="0.7"/>
  
  <!-- Subtle animation for data flow -->
  <rect x="35" y="58" width="4" height="4" rx="2" fill="#3b82f6">
    <animate attributeName="x" values="35;50;35" dur="3s" repeatCount="indefinite"/>
    <animate attributeName="opacity" values="0.8;0.3;0.8" dur="3s" repeatCount="indefinite"/>
  </rect>
  <rect x="81" y="58" width="4" height="4" rx="2" fill="#3b82f6">
    <animate attributeName="x" values="81;66;81" dur="3s" begin="1.5s" repeatCount="indefinite"/>
    <animate attributeName="opacity" values="0.8;0.3;0.8" dur="3s" begin="1.5s" repeatCount="indefinite"/>
  </rect>
</svg>