<svg width="120" height="120" viewBox="0 0 120 120" xmlns="http://www.w3.org/2000/svg">
  <!-- Network mesh representing distributed GraphQL architecture -->
  <defs>
    <radialGradient id="nodeGradient" cx="50%" cy="50%" r="50%">
      <stop offset="0%" style="stop-color:#4285F4;stop-opacity:1" />
      <stop offset="100%" style="stop-color:#1A73E8;stop-opacity:0.8" />
    </radialGradient>
  </defs>
  
  <!-- Network connections -->
  <path d="M30,30 Q60,15 90,30" fill="none" stroke="#E8EAED" stroke-width="2" opacity="0.6"/>
  <path d="M30,30 Q15,60 30,90" fill="none" stroke="#E8EAED" stroke-width="2" opacity="0.6"/>
  <path d="M90,30 Q105,60 90,90" fill="none" stroke="#E8EAED" stroke-width="2" opacity="0.6"/>
  <path d="M30,90 Q60,105 90,90" fill="none" stroke="#E8EAED" stroke-width="2" opacity="0.6"/>
  <path d="M30,30 Q60,60 90,90" fill="none" stroke="#E8EAED" stroke-width="2" opacity="0.6"/>
  <path d="M30,90 Q60,60 90,30" fill="none" stroke="#E8EAED" stroke-width="2" opacity="0.6"/>
  
  <!-- Corner nodes (distributed services) -->
  <circle cx="30" cy="30" r="10" fill="#34A853"/>
  <circle cx="90" cy="30" r="10" fill="#34A853"/>
  <circle cx="30" cy="90" r="10" fill="#34A853"/>
  <circle cx="90" cy="90" r="10" fill="#34A853"/>
  
  <!-- Central node (Nadel gateway) -->
  <circle cx="60" cy="60" r="14" fill="url(#nodeGradient)"/>
  <circle cx="60" cy="60" r="4" fill="#FFFFFF"/>
  
  <!-- Inner connection indicators -->
  <circle cx="30" cy="30" r="3" fill="#FFFFFF" opacity="0.9"/>
  <circle cx="90" cy="30" r="3" fill="#FFFFFF" opacity="0.9"/>
  <circle cx="30" cy="90" r="3" fill="#FFFFFF" opacity="0.9"/>
  <circle cx="90" cy="90" r="3" fill="#FFFFFF" opacity="0.9"/>
</svg>